HIERARCHY
ROOT Hips
{
 OFFSET 0.000000 0.000000 0.000000
 CHANNELS 6 Xposition Yposition Zposition Yrotation Xrotation Zrotation
 JOINT Chest
 {
  OFFSET 0.000000 9.585900 0.002600
  CHANNELS 3 Yrotation Xrotation Zrotation
  JOINT Chest2
  {
   OFFSET 0.000000 9.601200 -0.005300
   CHANNELS 3 Yrotation Xrotation Zrotation
   JOINT Chest3
   {
    OFFSET 0.000000 9.561800 0.000000
    CHANNELS 3 Yrotation Xrotation Zrotation
    JOINT Chest4
    {
     OFFSET 0.000000 9.552100 0.000000
     CHANNELS 3 Yrotation Xrotation Zrotation
     JOINT Neck
     {
      OFFSET 0.000000 14.453000 0.000000
      CHANNELS 3 Yrotation Xrotation Zrotation
      JOINT Head
      {
       OFFSET 0.000000 8.936500 -0.011300
       CHANNELS 3 Yrotation Xrotation Zrotation
       End Site
       {
        OFFSET 0.000000 17.073600 -0.006000
       }
      }
     }
     JOINT RightCollar
     {
      OFFSET -2.921100 9.558500 0.000000
      CHANNELS 3 Yrotation Xrotation Zrotation
      JOINT RightShoulder
      {
       OFFSET -13.519700 0.000000 0.000000
       CHANNELS 3 Yrotation Xrotation Zrotation
       JOINT RightElbow
       {
        OFFSET 0.000000 -29.696600 0.000000
        CHANNELS 3 Yrotation Xrotation Zrotation
        JOINT RightWrist
        {
         OFFSET 0.000000 -24.004700 0.000000
         CHANNELS 3 Yrotation Xrotation Zrotation
         End Site
         {
          OFFSET 0.000000 -17.728500 0.000000
         }
        }
       }
      }
     }
     JOINT LeftCollar
     {
      OFFSET 2.921100 9.558500 0.000000
      CHANNELS 3 Yrotation Xrotation Zrotation
      JOINT LeftShoulder
      {
       OFFSET 13.519700 0.000000 0.000000
       CHANNELS 3 Yrotation Xrotation Zrotation
       JOINT LeftElbow
       {
        OFFSET 0.000000 -29.696600 0.000000
        CHANNELS 3 Yrotation Xrotation Zrotation
        JOINT LeftWrist
        {
         OFFSET 0.000000 -24.004700 0.000000
         CHANNELS 3 Yrotation Xrotation Zrotation
         End Site
         {
          OFFSET 0.000000 -17.728500 0.000000
         }
        }
       }
      }
     }
    }
   }
  }
 }
 JOINT RightHip
 {
  OFFSET -7.771700 -0.012900 -0.001300
  CHANNELS 3 Yrotation Xrotation Zrotation
  JOINT RightKnee
  {
   OFFSET 0.000000 -40.869800 0.001200
   CHANNELS 3 Yrotation Xrotation Zrotation
   JOINT RightAnkle
   {
    OFFSET 0.000000 -39.717900 0.002100
    CHANNELS 3 Yrotation Xrotation Zrotation
    JOINT RightToe
    {
     OFFSET 0.000000 -4.965400 11.033500
     CHANNELS 3 Yrotation Xrotation Zrotation
     End Site
     {
      OFFSET 0.000000 -1.423100 5.872300
     }
    }
   }
  }
 }
 JOINT LeftHip
 {
  OFFSET 7.771700 -0.012900 -0.001300
  CHANNELS 3 Yrotation Xrotation Zrotation
  JOINT LeftKnee
  {
   OFFSET 0.000000 -40.869800 0.001200
   CHANNELS 3 Yrotation Xrotation Zrotation
   JOINT LeftAnkle
   {
    OFFSET 0.000000 -39.717900 0.002100
    CHANNELS 3 Yrotation Xrotation Zrotation
    JOINT LeftToe
    {
     OFFSET 0.000000 -4.965400 11.033500
     CHANNELS 3 Yrotation Xrotation Zrotation
     End Site
     {
      OFFSET 0.000000 -1.423100 5.872300
     }
    }
   }
  }
 }
}
MOTION
Frames: 11
Frame Time: 0.008333
0.000000 85.388000 0.000000 0.000000 -5.767877 0.000000 0.000000 11.653817 0.000000 0.000000 -5.885947 0.000000 0.000000 -0.000000 0.000000 0.000000 -0.000000 0.000000 0.000000 12.528835 0.000000 0.000000 0.711642 0.000000 0.000000 -0.000000 0.000000 0.000000 0.000000 -90.000000 0.000000 -2.309062 0.000000 0.000000 2.309062 0.000000 0.000000 -0.000000 0.000000 0.000000 -0.000000 90.000000 0.000000 -2.309062 0.000000 0.000000 2.309062 0.000000 0.000000 8.520406 0.000000 0.000000 1.905762 0.000000 -0.000000 -4.658285 0.000000 0.000000 -0.000000 0.000000 0.000000 8.520406 0.000000 0.000000 1.905762 0.000000 -0.000000 -4.658285 0.000000 0.000000 -0.000000 0.000000
-19.184636 58.680473 71.790860 -177.563318 -39.212619 1.002835 -1.053426 29.234220 5.027922 -0.384514 5.579131 0.757165 -0.597348 8.724872 1.184096 -1.228507 23.449445 3.087453 -1.900547 9.510002 -5.200610 -1.279305 -18.084707 -9.242701 2.780160 2.365050 -2.335714 21.042829 -30.831542 -14.458914 3.653241 -70.932227 6.237797 17.645587 8.373744 -36.449466 -12.756253 -0.917490 -6.547852 -8.466396 -29.978239 1.289945 -82.545054 -54.581693 56.127726 -19.043072 8.450654 11.557977 9.280228 -30.408480 -8.796267 -8.825652 64.012323 -11.629540 3.744278 10.524685 10.182764 -0.415350 0.440990 -0.227981 -9.816437 -36.028239 -6.066880 23.226215 53.905025 18.525501 -6.946333 38.677032 3.089747 0.222343 -17.433229 -5.721603
-19.194097 58.694814 71.793572 -177.654466 -39.255251 1.139847 -1.007949 29.278237 4.936592 -0.359608 5.577602 0.745123 -0.608712 8.729966 1.191100 -1.211207 23.454834 3.076193 -1.898785 9.673118 -5.275441 -1.310049 -17.791924 -9.282053 2.700449 2.459635 -2.367849 21.356556 -31.251564 -13.982236 4.614020 -70.370222 4.486261 17.572443 8.609490 -36.824191 -12.922222 -0.850049 -6.559911 -8.442872 -30.199856 1.376640 -81.951357 -54.549765 55.691739 -18.796818 8.847532 12.157950 9.401886 -30.352298 -8.887590 -8.792959 64.001933 -11.587223 3.714710 10.563603 10.170094 -0.391223 0.439573 -0.212004 -9.680582 -35.905251 -6.155597 23.152146 53.810138 18.421855 -6.995281 38.584863 3.053681 0.250583 -17.324874 -5.690935
-19.191899 58.704889 71.803386 -177.734948 -39.248911 1.211331 -0.882615 29.253140 4.925789 -0.386837 5.585101 0.753321 -0.615804 8.739999 1.192108 -1.156183 23.460088 3.020903 -1.923088 9.833673 -5.279715 -1.333824 -17.486095 -9.324479 2.607914 2.539432 -2.317487 21.680392 -31.661129 -13.565710 5.367457 -69.807050 2.974414 17.509577 8.847928 -37.308181 -13.124423 -0.781000 -6.509856 -8.441974 -30.424338 1.430395 -81.331685 -54.447368 55.254597 -18.547390 9.302007 12.779054 9.497369 -30.359735 -8.926812 -8.708094 63.983838 -11.484060 3.692660 10.653746 10.164202 -0.389006 0.400941 -0.203700 -9.595413 -35.863398 -6.167317 23.107797 53.760163 18.354817 -6.985783 38.545485 3.079172 0.242696 -17.277103 -5.687509
-19.192071 58.717436 71.811864 -177.789879 -39.261753 1.290799 -0.835668 29.250208 4.884979 -0.380536 5.585208 0.747604 -0.604861 8.750357 1.174666 -1.143779 23.463567 3.016870 -1.923353 9.993531 -5.320955 -1.354259 -17.170087 -9.368049 2.563508 2.617712 -2.290129 22.020098 -32.054587 -13.238817 5.889657 -69.255348 1.737585 17.453851 9.080999 -37.890045 -13.294425 -0.721274 -6.503973 -8.478953 -30.672565 1.453190 -80.637160 -54.278678 54.777868 -18.309614 9.806796 13.398503 9.581742 -30.345571 -8.983410 -8.693142 63.977870 -11.453202 3.681163 10.710178 10.156424 -0.367346 0.394444 -0.188791 -9.504884 -35.802146 -6.211581 23.059858 53.701228 18.285640 -7.005527 38.514672 3.083263 0.249850 -17.232789 -5.676223
-19.199759 58.730608 71.820465 -177.823884 -39.281272 1.412724 -0.833856 29.246494 4.784656 -0.374203 5.581855 0.742874 -0.565246 8.737269 1.153898 -1.128969 23.466714 3.009709 -1.945692 10.173017 -5.331449 -1.379611 -16.840354 -9.407021 2.506661 2.712040 -2.217369 22.381252 -32.425373 -13.023565 6.181933 -68.722820 0.771760 17.391645 9.279995 -38.540222 -13.492947 -0.636125 -6.478547 -8.549799 -30.937127 1.445272 -79.864660 -54.065777 54.260494 -18.106574 10.354845 13.992787 9.675272 -30.317279 -9.096439 -8.699195 63.971169 -11.449803 3.636468 10.785883 10.122735 -0.310225 0.358215 -0.159944 -9.388297 -35.741869 -6.323386 23.019604 53.634611 18.220523 -7.092674 38.480212 3.024532 0.299065 -17.180792 -5.637167
-19.198065 58.741867 71.830012 -177.862994 -39.290533 1.492240 -0.796635 29.224789 4.744828 -0.367631 5.575184 0.739213 -0.544692 8.720706 1.143774 -1.097335 23.457527 2.996986 -1.973320 10.366929 -5.341175 -1.413978 -16.494385 -9.440107 2.436577 2.794720 -2.143512 22.784592 -32.743300 -12.910383 6.259380 -68.215457 0.049404 17.317354 9.425471 -39.226530 -13.695823 -0.534393 -6.460931 -8.651642 -31.215886 1.408998 -79.028742 -53.824453 53.712750 -17.958200 10.931259 14.550554 9.737036 -30.307533 -9.153053 -8.711291 63.963006 -11.458486 3.636388 10.834475 10.114005 -0.297031 0.337703 -0.152459 -9.304145 -35.686923 -6.370874 23.021716 53.562077 18.175112 -7.115147 38.472372 3.061360 0.292528 -17.158975 -5.629611
-19.193869 58.753016 71.837956 -177.885138 -39.309562 1.554230 -0.766541 29.206317 4.719947 -0.360786 5.566149 0.736584 -0.534168 8.707581 1.140105 -1.113002 23.481445 2.995760 -1.954424 10.526536 -5.384258 -1.452294 -16.133640 -9.470215 2.412980 2.849138 -2.112622 23.236652 -33.031347 -12.907793 6.146902 -67.738770 -0.460040 17.236278 9.533557 -39.922858 -13.841133 -0.471759 -6.474695 -8.782833 -31.507376 1.353341 -78.154303 -53.564015 53.152118 -17.865621 11.508959 15.055036 9.764968 -30.292319 -9.191698 -8.716870 63.960027 -11.476521 3.647084 10.879313 10.114370 -0.294979 0.307163 -0.152354 -9.246170 -35.645760 -6.419293 23.047041 53.516593 18.160975 -7.103101 38.488846 3.115829 0.285261 -17.187929 -5.637362
-19.179368 58.761765 71.845885 -177.907104 -39.319972 1.560353 -0.706184 29.177737 4.764137 -0.376460 5.579565 0.725702 -0.501321 8.669060 1.145630 -1.129204 23.506637 2.988447 -1.932320 10.686780 -5.415639 -1.486514 -15.765106 -9.501192 2.423789 2.921542 -2.063207 23.698856 -33.295922 -13.026645 5.853470 -67.298146 -0.761929 17.154161 9.637307 -40.600158 -13.975226 -0.409632 -6.486896 -8.933708 -31.805099 1.288893 -77.265174 -53.299461 52.592628 -17.821190 12.068980 15.471632 9.746390 -30.297490 -9.155096 -8.715942 63.961695 -11.503762 3.688567 10.891647 10.142092 -0.332501 0.308187 -0.170034 -9.230992 -35.607171 -6.395731 23.051895 53.479817 18.135306 -7.028525 38.510503 3.212791 0.230223 -17.218553 -5.659834
-19.181034 58.772339 71.850375 -177.935089 -39.356766 1.668624 -0.703762 29.175489 4.698577 -0.385672 5.592057 0.710050 -0.499325 8.660806 1.147247 -1.023261 23.405044 3.004704 -2.000918 10.937219 -5.419262 -1.507507 -15.401772 -9.538837 2.421155 3.067934 -1.967720 24.092460 -33.506814 -13.232931 5.371306 -66.897397 -0.830534 17.080290 9.760884 -41.229991 -14.149537 -0.268482 -6.496600 -9.120228 -32.092328 1.208155 -76.387972 -53.035097 52.046249 -17.837587 12.603990 15.780516 9.776896 -30.259142 -9.221582 -8.728131 63.953655 -11.541753 3.641692 10.952155 10.102174 -0.267482 0.284981 -0.145567 -9.163839 -35.518363 -6.448196 22.994758 53.419664 18.014898 -7.174181 38.437971 3.092050 0.324172 -17.147495 -5.598524
-19.170428 58.778376 71.856710 -177.940332 -39.365693 1.688505 -0.695642 29.165708 4.699209 -0.361778 5.561084 0.719271 -0.501015 8.641170 1.160630 -1.016398 23.387518 3.010336 -2.017941 11.140551 -5.446757 -1.505024 -15.058351 -9.587578 2.470230 3.138037 -1.934207 24.446424 -33.673500 -13.443373 4.683098 -66.541596 -0.624226 17.033805 9.924896 -41.798467 -14.289940 -0.173574 -6.561232 -9.270183 -32.392328 1.164408 -75.552701 -52.762948 51.527057 -17.919211 13.092181 15.986543 9.694705 -30.262361 -9.179661 -8.704533 63.936547 -11.592192 3.651244 10.976154 10.095859 -0.263982 0.289426 -0.143284 -9.171781 -35.489892 -6.430205 22.991838 53.394885 17.966920 -7.180642 38.433705 3.095709 0.322412 -17.145686 -5.587476
